<svg xmlns="http://www.w3.org/2000/svg" viewBox="0 0 297.16 275.97"><defs><style>.cls-1{fill:#53bb67;}</style></defs><title>Asset 2</title><g id="Layer_2" data-name="Layer 2"><g id="Layer_1-2" data-name="Layer 1"><path class="cls-1" d="M288.72,24.94a35.78,35.78,0,0,0-24.47-12.72L125.38.14a36.06,36.06,0,0,0-39,32.77L69.67,224.73a36.08,36.08,0,0,0,32.77,39l138.88,12.08c1.06.09,2.11.14,3.15.14a36.09,36.09,0,0,0,35.87-32.91L297,51.23A35.76,35.76,0,0,0,288.72,24.94Zm-6.54,25-8.35,96-31.69-36.85a10.32,10.32,0,0,0-14.25-1.34l-42.75,34.06a10.32,10.32,0,0,0-1.32,14.88l8.22,9.34a10.32,10.32,0,0,1-15.41,13.73l-32.78-36.34A10.32,10.32,0,0,0,130.16,142l-40.9,29.42L101.2,34.2A21.14,21.14,0,0,1,124.08,15L263,27.06a21.13,21.13,0,0,1,19.22,22.88Z"/><circle class="cls-1" cx="142.16" cy="73.6" r="21.5"/><path class="cls-1" d="M63.5,260.66a50.68,50.68,0,0,1-11.77-37.23L68.42,31.61a50.79,50.79,0,0,1,6.19-20.33,6.29,6.29,0,0,0-6-9.39L33.09,4.8a36,36,0,0,0-33,38.85l15.7,191.91A36.08,36.08,0,0,0,51.7,268.65c1,0,2,0,3-.12l8.9-.73a2.94,2.94,0,0,0,1.9-4.95C64.79,262.15,64.14,261.42,63.5,260.66Z"/></g></g></svg>