<svg width="116" height="26" viewBox="0 0 116 26" fill="none" xmlns="http://www.w3.org/2000/svg">
<path d="M16.1302 26H1.95481C0.910353 26 0.0284555 25.1808 7.20762e-06 24.1333C-0.0284411 23.045 0.841264 22.1565 1.91417 22.1565H16.1302C19.4261 22.1565 22.1043 19.3523 22.1043 15.9081C22.1043 12.464 19.4261 9.65983 16.1302 9.65983H3.8324V17.0535C3.8324 18.101 3.01553 18.9854 1.97107 19.014C0.885969 19.0466 7.20762e-06 18.1743 7.20762e-06 17.0942V8.46968C7.20762e-06 7.00644 1.18264 5.81628 2.6457 5.81628H16.1343C21.5435 5.81628 25.9408 10.3446 25.9408 15.9081C25.9408 21.4717 21.5394 26 16.1302 26Z" fill="url(#paint0_linear_71_16)"/>
<path d="M16.1302 26H1.95481C0.910353 26 0.0284555 25.1808 7.20762e-06 24.1333C-0.0284411 23.045 0.841264 22.1565 1.91417 22.1565H16.1302C19.4261 22.1565 22.1043 19.3523 22.1043 15.9081C22.1043 12.464 19.4261 9.65983 16.1302 9.65983H3.8324V17.0535C3.8324 18.101 3.01553 18.9854 1.97107 19.014C0.885969 19.0466 7.20762e-06 18.1743 7.20762e-06 17.0942V8.46968C7.20762e-06 7.00644 1.18264 5.81628 2.6457 5.81628H16.1343C21.5435 5.81628 25.9408 10.3446 25.9408 15.9081C25.9408 21.4717 21.5394 26 16.1302 26Z" fill="url(#paint1_linear_71_16)"/>
<path d="M8.33537 19.018H1.91824C1.2111 19.018 0.203219 18.2966 0.158514 17.7056C-0.0568802 17.245 0.207283 15.9326 0.207283 15.9326L8.33537 15.8959C12.1921 15.8959 15.3337 13.3403 15.3337 9.50901C15.3337 5.67769 12.1962 2.56372 8.33537 2.56372H2.58881C1.88167 2.56372 1.3127 1.98903 1.3127 1.2839C1.3127 0.578774 1.88167 0 2.58881 0H8.33943C13.6064 0 17.8899 4.26336 17.8899 9.50901C17.8899 14.7547 13.6024 19.018 8.33537 19.018Z" fill="url(#paint2_linear_71_16)"/>
<path d="M46.0538 21.5288C45.8465 21.3005 45.562 21.1375 45.2003 21.0478L35.8571 18.7776C37.5762 17.836 39.0108 16.7478 40.1446 15.5291C41.6402 13.9151 42.4002 12.2888 42.4002 10.7033C42.4002 9.48458 41.8597 8.44115 40.8355 7.69527C39.8764 6.99422 38.519 6.63962 36.7999 6.63962C35.9099 6.63962 34.8858 6.73744 33.756 6.929C32.9106 7.07166 32.0206 7.27545 31.094 7.53631C31.0615 7.44256 31.0249 7.3529 30.9762 7.27545L30.9152 7.18578C30.7282 6.94938 30.3747 6.66407 29.7448 6.66407C28.684 6.66407 28.0297 7.34067 28.0297 8.42893V22.723C28.0297 23.6808 28.6475 24.3045 29.6066 24.3045C30.5901 24.3045 31.2281 23.7012 31.2281 22.7679V21.0641L44.5541 24.2718C44.6882 24.3085 44.7817 24.3208 44.8752 24.3208C45.1597 24.3208 45.5823 24.227 45.9603 23.7746C46.2488 23.4281 46.4033 22.9961 46.4033 22.5355C46.4033 22.2054 46.3139 21.8997 46.135 21.6266L46.0538 21.5288ZM36.7918 9.61501C39.0799 9.61501 39.0799 10.475 39.0799 10.8459C39.0799 11.8364 38.328 12.9694 36.8446 14.2085C35.3247 15.4802 33.4349 16.4502 31.2119 17.0983V10.7848C32.297 10.3935 33.2927 10.1082 34.1664 9.92477C35.1784 9.7169 36.0603 9.61501 36.7918 9.61501Z" fill="#141414"/>
<path d="M63.7568 19.4705C63.4438 19.2137 63.0577 19.0751 62.6432 19.0751H61.6516L56.9373 7.9235C56.7788 7.5526 56.5309 7.25098 56.2017 7.03496C55.8725 6.81894 55.5149 6.70889 55.141 6.70889C54.32 6.70889 53.6698 7.15316 53.3122 7.95611L47.1064 22.0097C47.021 22.1768 46.9763 22.3725 46.9763 22.6048C46.9763 23.0531 47.1551 23.4567 47.4965 23.7664C47.8135 24.0558 48.2037 24.2107 48.6182 24.2107C49.3172 24.2107 49.8699 23.8724 50.126 23.2773L50.5893 22.2094H59.4529L59.9081 23.2406C60.0382 23.53 60.2576 23.7827 60.5665 23.9947C60.8632 24.1985 61.1639 24.3004 61.4606 24.3004C61.9808 24.3004 62.4481 24.0436 62.7733 23.5749C62.9765 23.2773 63.0821 22.9757 63.0821 22.6741C63.0821 22.5233 63.0537 22.3766 62.9968 22.2094C63.3138 22.1442 63.5779 22.0097 63.7933 21.81C64.1144 21.5125 64.2851 21.1171 64.2851 20.6728C64.2851 20.2245 64.1225 19.8251 63.8137 19.5194L63.7568 19.4705ZM52.0279 18.9406L55.1288 11.6407L58.0671 18.9406H52.0279Z" fill="#141414"/>
<path d="M75.9489 3.02023C74.7012 3.02023 74.2623 3.84764 74.2623 4.55684V17.1431L67.9712 7.64227C67.6298 7.01051 67.0811 6.66406 66.4187 6.66406C65.488 6.66406 64.8906 7.26729 64.8906 8.20067V22.4255C64.8906 22.8208 65.0207 23.1877 65.2726 23.5219C65.6709 24.0517 66.1423 24.1659 66.4634 24.1659C66.9145 24.1659 67.2965 24.0354 67.6054 23.7787C67.8452 23.5749 68.1337 23.1877 68.1337 22.4703V13.7479L74.2298 23.0328C74.5671 23.5504 74.8069 23.8357 75.0426 23.9906C75.3149 24.1944 75.6238 24.3044 75.9489 24.3044C76.339 24.3044 76.7211 24.1618 77.0502 23.8887C77.5217 23.4974 77.6233 23.0409 77.6233 22.723V4.60167C77.6192 3.63977 76.9608 3.02023 75.9489 3.02023Z" fill="#141414"/>
<path d="M86.9583 6.82304C86.2106 6.82304 85.3612 6.93309 84.4386 7.14911C83.8575 7.28769 83.2722 7.46295 82.6992 7.6749C82.6098 7.46703 82.4757 7.27954 82.2969 7.1165C81.9718 6.81896 81.5775 6.66 81.1508 6.66C80.3461 6.66 79.4846 7.13688 79.4846 8.47377V22.8575C79.4846 23.1958 79.6227 24.3004 81.4028 24.3004C82.3294 24.3004 83.6461 23.8724 85.4262 22.988C87.4867 21.9608 89.2179 20.6892 90.5672 19.2096C92.3351 17.2695 93.2332 15.1256 93.2332 12.835C93.2332 11.1516 92.6561 9.72098 91.5101 8.58789C90.3234 7.41812 88.7912 6.82304 86.9583 6.82304ZM89.8966 13.0714C89.8966 14.3675 89.2667 15.7044 88.0272 17.0453C86.7673 18.4107 85.0035 19.5724 82.7764 20.5139V11.1598C83.382 10.8663 83.9469 10.6381 84.459 10.4872C85.2149 10.2631 85.9626 10.149 86.6779 10.149C87.6573 10.149 88.4214 10.4017 89.0107 10.9193C89.6081 11.4451 89.8966 12.1461 89.8966 13.0714Z" fill="#141414"/>
<path d="M97.468 7.16539C97.1632 6.89638 96.7771 6.75372 96.3504 6.75372C95.3669 6.75372 94.7288 7.40994 94.7288 8.42891V22.6252C94.7288 23.0857 94.8954 23.4893 95.2124 23.799C95.5172 24.1251 95.9074 24.3004 96.3463 24.3004C96.7934 24.3004 97.1957 24.1373 97.5046 23.8276C97.72 23.6115 97.9719 23.2284 97.9719 22.6211V8.42891C97.9801 7.75639 97.6996 7.36918 97.468 7.16539Z" fill="#141414"/>
<path d="M114.309 21.0927H102.654V18.8795H109.518C109.953 18.8795 110.339 18.7124 110.648 18.3944C110.944 18.0847 111.103 17.6975 111.103 17.2776C111.103 16.7111 110.851 16.2301 110.388 15.9204C110.111 15.737 109.79 15.6432 109.433 15.6432H102.658V10.1H109.477C110.465 10.1 111.103 9.46419 111.103 8.47376C111.103 8.04986 110.989 7.67488 110.757 7.36104L110.705 7.29583C110.497 7.06758 110.119 6.79449 109.473 6.79449H101.191C100.654 6.79449 100.297 6.86786 100.045 7.02682C99.756 7.20616 99.4065 7.58521 99.4065 8.38001V22.5314C99.4065 23.6197 100.089 24.2963 101.191 24.2963H114.403C115.029 24.2963 115.549 23.9906 115.821 23.4607C115.943 23.2284 116.004 22.9635 116.004 22.6741C116 21.7163 115.338 21.0927 114.309 21.0927Z" fill="#141414"/>
<defs>
<linearGradient id="paint0_linear_71_16" x1="-0.000671387" y1="15.9081" x2="25.9408" y2="15.9081" gradientUnits="userSpaceOnUse">
<stop stop-color="#595DFC"/>
<stop offset="1" stop-color="#FF31FA"/>
</linearGradient>
<linearGradient id="paint1_linear_71_16" x1="-0.000671387" y1="15.9081" x2="25.9408" y2="15.9081" gradientUnits="userSpaceOnUse">
<stop stop-color="#595DFC"/>
<stop offset="1" stop-color="#FF31FA"/>
</linearGradient>
<linearGradient id="paint2_linear_71_16" x1="0.0739746" y1="9.50901" x2="17.8899" y2="9.50901" gradientUnits="userSpaceOnUse">
<stop stop-color="#595DFC"/>
<stop offset="1" stop-color="#FF31FA"/>
</linearGradient>
</defs>
</svg>
